<?xml version="1.0" encoding="utf-8"?>
<!-- Generator: Adobe Illustrator 16.0.0, SVG Export Plug-In . SVG Version: 6.00 Build 0)  -->
<!DOCTYPE svg PUBLIC "-//W3C//DTD SVG 1.1//EN" "http://www.w3.org/Graphics/SVG/1.1/DTD/svg11.dtd">
<svg version="1.1" id="レイヤー_1" xmlns="http://www.w3.org/2000/svg" xmlns:xlink="http://www.w3.org/1999/xlink" x="0px"
	 y="0px" width="1200px" height="1200px" viewBox="0 0 1200 1200" enable-background="new 0 0 1200 1200" xml:space="preserve">
<g>
	<path d="M910.285,660.991c1.915,3.452,5.757,7.885,13.163,9.498l4.566,0.045c14.711-2.817,30.522-12.728,38.552-21.059
		c9.132-9.498,11.404-18.297,13.051-24.722c2.327-9.144,6.638-26.117-2.059-38.459c-5.034-7.14-13.218-11.292-24.343-12.346
		l-3.453,0.2c-7.962,1.698-26.015,9.59-27.827,21.967c-0.814,5.541-3.632,13.49-6.372,21.185
		C909.628,633.987,904.028,649.743,910.285,660.991z"/>
	<path d="M1190.97,743.131c-2.441-8.319-8.298-14.465-16.484-17.318l-13.174,4.366c-50.956,74.902-134.911,127.407-224.557,140.458
		c-6.525,0.947-13.017,1.427-19.286,1.427c-15.035,0-41.559-2.931-50.357-22.54c-10.424-23.284,13.976-51.236,24.943-62.172
		c18.822-18.754,30.479-35.056,41.928-72.096c3.374-10.934,0.379-18.239-2.717-22.438c-4.7-6.368-12.872-9.877-23.018-9.877
		c-14.498-0.011-31.425,7.005-42.115,17.45c-15.013,14.678-22.262,33.663-29.278,52.017c-2.582,6.77-5.022,13.162-7.817,19.319
		c-28.553,62.752-97.183,99.734-146.315,122.095c-28.843,13.132-59.867,25.391-91.412,26.26c-1.014,0.022-2.043,0.034-3.069,0.034
		c-31.743,0-60.474-13.174-74.973-34.388c-27.567-40.314-21.91-114.77-8.586-166.875c21.894-42.083,58.476-76.771,93.859-110.332
		c4.325-4.099,8.636-8.186,12.91-12.277c99.546-95.285,186.94-202.914,259.769-319.904c16.258-26.103,32.529-54.254,37.305-86.048
		c5.604-37.271-7.671-73.074-33.807-91.209c-12.728-8.825-28.454-13.485-45.479-13.485c-17.261-0.005-35.514,4.838-51.393,13.625
		c-28.42,15.719-48.764,40.708-67.172,64.957c-108.365,142.756-188.152,310.244-230.736,484.33
		c-6.27,25.634-27.216,45.867-48.129,64.398c-76.511,67.784-160.471,127.485-249.536,177.44
		c-26.415,14.821-65.457,32.483-101.404,32.483c-16.692,0-31.052-3.942-42.718-11.737c-0.478-0.588-0.979-1.213-1.141-1.548
		l-1.281-1.805c0.139,0.223,0.279,0.479,0.418,0.758l-1.637,0.802c-0.078-2.917-1.081-5.335-2.551-7.182
		c-0.345-1.16-0.824-2.094-1.246-2.784l-9.884-5.525c-3.135,0-5.318,1.237-6.03,1.649c0.88-0.502,2.75-1.349,5.29-1.349v6.281
		l-10.857,1.047c-2.618,7.061-1.615,13.43-0.946,17.64l1.515,4.133c-0.156-0.246-0.379-0.614-0.59-1.138
		c0.122,0.301,0.267,0.725,0.435,1.204c0.373,1.069,0.823,2.349,1.331,3.619c0.707,1.892,1.664,3.864,2.305,5.168
		c0.173,0.354,0.329,0.654,0.434,0.889l0.479,0.948H14.18c0.073,0.144,0.146,0.278,0.217,0.4l0.006,0.012
		c0.262,0.457,0.519,0.857,0.73,1.17c9.354,17.915,29.176,31.381,50.813,34.432c4.053,0.58,8.263,0.869,12.499,0.869
		c22.957,0,44.89-8.353,63.648-16.171c118.498-49.388,227.943-123.364,318.233-214.881c-7.206,37.529-13.976,72.987-5.079,113.243
		c10.546,47.741,42.952,87.239,84.567,103.053c15.189,5.779,32.167,8.707,50.451,8.707c18.455,0,38.12-2.85,60.104-8.707
		c67.496-17.984,129.758-55.946,176.818-107.541c1.881,26.795,13.597,46.771,33.92,57.829c14.811,8.039,32.417,11.792,55.412,11.792
		c3.207,0,6.402-0.075,9.576-0.187c97.742-3.72,192.143-51.873,252.531-128.79C1187.694,777.597,1195.413,758.275,1190.97,743.131z
		 M908.248,694.342c0.012,0,0.012,0,0.012,0c-0.323,0-0.679,0.045-1.014,0.057C907.581,694.387,907.925,694.342,908.248,694.342z
		 M829.238,97c0.456,0,0.901,0.033,1.358,0.044c-0.88-0.016-1.771-0.011-2.652,0C828.369,97.04,828.804,97,829.238,97z
		 M747.732,188.226c15.848-20.835,33.243-41.994,56.326-51.771c7.038-2.984,14.968-4.56,22.92-4.56
		c16.513,0,30.344,6.676,36.992,17.861c9.443,15.896,5.748,38.358-11.638,70.692c-82.127,152.757-203.175,280.115-323.787,401.99
		C574.337,466.571,649.625,317.236,747.732,188.226z M20.79,905.226c0.011,0,0.028-0.012,0.039-0.012
		c0.067,0,0.128,0.023,0.173,0.101C20.945,905.226,20.867,905.214,20.79,905.226z M23.084,910.293
		c0.067-0.012,0.134-0.021,0.2-0.021c0.146,0,0.268,0.077,0.401,0.121C23.497,910.326,23.307,910.26,23.084,910.293z
		 M78.446,959.381c-0.417,0-0.84-0.045-1.258-0.045c2.255,0.034,4.505-0.056,6.754-0.2C82.11,959.247,80.278,959.381,78.446,959.381
		z M590.268,953.332c-0.178,0-0.356-0.022-0.535-0.022c0.446,0,0.896-0.011,1.343-0.011
		C590.808,953.299,590.535,953.332,590.268,953.332z M916.521,906.707c-1.646,0-3.308-0.045-4.955-0.089
		c1.903,0.056,3.807,0.078,5.713,0.066C917.022,906.685,916.778,906.707,916.521,906.707z"/>
</g>
<g>
	<path d="M338.583,1009.229c-2.377,6.153-7.832,19.578-14.684,31.325l-8.391,14.544l0.14-0.14c-2.377,4.895-4.755,9.09-6.712,12.307
		c-7.552,12.167-3.776,5.873-10.769,18.6c-8.111,12.586-13.005,23.074-13.005,22.935l-9.23,21.677
		c-0.699,1.398-2.517,1.678-3.636,1.678c-2.098,0-3.916-1.259-5.594-3.916v0.141c-1.259-1.958-1.818-4.056-1.818-6.153
		c0-3.776,1.958-8.811,5.874-15.942l11.467-19.439c8.811-14.963,14.265-25.312,19.998-35.381l0.28-0.699
		c18.46-31.186,26.012-53.562,30.207-53.562c5.034,0,6.853,2.797,6.853,6.853c0,0.839,0,1.538-0.14,2.378l-0.839,2.656V1009.229z"/>
	<path d="M363.615,1048.245c-0.279,1.398-2.098,4.336-5.314,9.51c-1.398,2.378-2.377,4.195-2.657,5.874
		c-0.699,1.957-4.755,6.572-5.314,9.649l-6.293,10.208l0.14-0.14c-0.56,1.259-1.678,2.797-2.238,4.195l-1.119,0.979
		c-1.818,1.817-9.789,19.858-18.459,19.858c-3.497,0-4.755-1.539-4.755-4.195c0-0.84,0.14-1.958,0.419-3.077l0.419-2.237
		c0.699-3.636,3.636-8.671,8.251-14.265c1.818-2.098,2.797-4.056,3.356-6.572l5.035-7.133h-0.14
		c3.216-5.174,5.454-8.95,6.433-11.048c1.538-3.496,15.104-21.816,17.9-21.816c2.237,0,3.496,1.958,4.195,5.595l-0.14-0.28
		c0.279,1.119,0.279,2.237,0.279,3.217c0,0.699,0,1.398-0.14,1.958L363.615,1048.245z M390.046,1005.592
		c-3.356,4.895-6.712,7.412-12.586,7.412c-0.42,0-1.539-0.56-1.818-0.839l-1.119-0.979c-1.259-1.118-1.818-2.377-1.818-3.355
		c0-0.42,0-0.84,0.28-1.259l1.538-2.937c3.077-4.755,6.293-6.993,9.23-6.993c4.056,0,4.475,2.518,6.013,5.594L390.046,1005.592z"/>
	<path d="M447.802,1031.324c-1.119,4.614-4.475,6.712-8.111,8.67l-1.538,0.84c-10.768,9.509-6.992,8.11-18.74,18.879
		c-5.874,5.454-15.103,11.747-15.523,13.705c-0.14,0.839,8.111,7.831,21.956,15.942l6.153,3.636c0.28,0.42,0.979,0.84,0.979,0.979
		c1.398,0.14,2.657,1.118,2.657,2.517c0,3.776-4.895,7.972-6.993,7.972c-4.055,0-8.67-1.538-13.984-4.476h0.14
		c-3.356-1.817-5.874-2.937-7.691-3.496h0.14c-7.412-2.237-12.167-8.11-16.782-13.845c-0.279-0.279-0.279-0.419-0.279-0.56
		c0,0,0-0.14-0.28-0.419c-7.132,14.265-14.404,26.711-19.159,26.711c-4.056,0-6.293-2.938-6.293-6.713
		c0-2.098,1.678-6.713,9.929-20.837c5.733-9.79,8.53-15.104,8.81-16.362c0.419-1.538,3.356-7.691,6.293-13.984l0.699-1.398
		c1.958-3.916,5.174-9.93,9.509-17.761v0.14c4.475-8.111,7.692-14.404,12.586-21.816c4.056-8.111,6.712-13.006,12.586-13.006
		c1.259,0,2.518,0.28,3.356,1.259v-0.14c1.398,1.259,1.958,2.797,1.958,4.475c0,1.958-1.539,4.755-1.818,5.035
		c-0.699,2.797-5.454,7.691-6.293,11.747l-9.09,17.62c-3.077,5.874-5.035,11.048-6.853,14.685l1.538-1.398
		c7.972-7.272,13.565-12.866,17.481-15.384c5.874-4.056,11.467-11.048,16.921-11.048c3.217,0,5.734,3.077,5.734,6.573
		c0,0.419,0,0.979-0.14,1.398L447.802,1031.324z"/>
	<path d="M511.434,1054.398c-2.098,6.153-3.916,7.133-5.734,10.069c-2.237,2.797-8.251,6.014-18.18,9.929
		c-9.789,3.776-16.642,5.594-19.998,5.594c-1.678,0-4.335-0.559-7.971-2.237l0.28,0.14c-0.419,0-0.979-0.14-1.538-0.419
		c-0.979,1.958-2.518,4.195-2.518,7.132c0,5.314,5.035,7.831,15.943,7.831c2.517,0,6.153-0.559,9.509-1.817l5.874-2.098
		c3.636,0,5.314,3.636,5.314,4.895c0,0.699-0.28,1.398-0.839,1.958c-9.37,7.552-18.879,11.607-27.689,11.607
		c-13.286,0-24.613-10.908-24.613-21.816c0-4.895,2.377-10.629,7.132-16.642c14.684-18.739,37.619-29.928,48.527-29.928
		c7.832,0,12.866,1.259,14.963,3.637h-0.14c1.539,1.538,2.377,3.775,2.377,6.572c0,1.119-0.14,2.518-0.699,4.755V1054.398z
		 M470.319,1064.468c0,0,0.14,0,0.559-0.14C470.599,1064.468,470.319,1064.468,470.319,1064.468z M470.878,1064.328
		c8.251-1.958,24.613-8.531,25.592-11.048c0,0,0-0.141,0.14-0.141C489.198,1053.42,477.451,1058.594,470.878,1064.328z"/>
	<path d="M569.89,1009.229c-2.377,6.153-7.832,19.578-14.684,31.325l-8.391,14.544l0.14-0.14c-2.377,4.895-4.755,9.09-6.712,12.307
		c-7.552,12.167-3.776,5.873-10.769,18.6c-8.111,12.586-13.005,23.074-13.005,22.935l-9.23,21.677
		c-0.699,1.398-2.517,1.678-3.636,1.678c-2.098,0-3.916-1.259-5.594-3.916v0.141c-1.259-1.958-1.818-4.056-1.818-6.153
		c0-3.776,1.958-8.811,5.874-15.942l11.467-19.439c8.811-14.963,14.265-25.312,19.998-35.381l0.28-0.699
		c18.46-31.186,26.012-53.562,30.207-53.562c5.034,0,6.853,2.797,6.853,6.853c0,0.839,0,1.538-0.14,2.378l-0.839,2.656V1009.229z"/>
	<path d="M594.922,1048.245c-0.279,1.398-2.098,4.336-5.314,9.51c-1.398,2.378-2.377,4.195-2.657,5.874
		c-0.699,1.957-4.755,6.572-5.314,9.649l-6.293,10.208l0.14-0.14c-0.56,1.259-1.678,2.797-2.238,4.195l-1.119,0.979
		c-1.818,1.817-9.789,19.858-18.459,19.858c-3.497,0-4.755-1.539-4.755-4.195c0-0.84,0.14-1.958,0.419-3.077l0.419-2.237
		c0.699-3.636,3.636-8.671,8.251-14.265c1.818-2.098,2.797-4.056,3.356-6.572l5.035-7.133h-0.14
		c3.216-5.174,5.454-8.95,6.433-11.048c1.538-3.496,15.104-21.816,17.9-21.816c2.237,0,3.496,1.958,4.195,5.595l-0.14-0.28
		c0.279,1.119,0.279,2.237,0.279,3.217c0,0.699,0,1.398-0.14,1.958L594.922,1048.245z M621.354,1005.592
		c-3.356,4.895-6.713,7.412-12.587,7.412c-0.419,0-1.538-0.56-1.817-0.839l-1.119-0.979c-1.259-1.118-1.818-2.377-1.818-3.355
		c0-0.42,0-0.84,0.28-1.259l1.538-2.937c3.077-4.755,6.293-6.993,9.229-6.993c4.056,0,4.476,2.518,6.014,5.594L621.354,1005.592z"/>
	<path d="M696.17,1035.239c-0.839,3.077-11.327,13.006-31.745,31.746l-12.026,11.048c-0.28,0.279-0.56,0.419-0.84,0.559l-8.11,6.434
		c-19.719,14.684-33.843,23.074-41.115,23.074c-4.335,0-5.734-2.657-5.734-6.992c0-2.098,0.14-4.755,0.839-7.271l0.559-1.958
		l-0.14,0.14c0.979-4.195,3.216-9.93,6.712-16.642l10.209-19.579l-0.14,0.42c1.398-4.615,9.229-15.663,13.285-15.663
		c2.937,0,3.636,3.217,3.636,5.454c0,1.259-1.258,5.034-1.258,5.594l-8.671,19.299c-4.056,9.09-6.853,15.523-8.111,19.299
		c3.496-2.237,14.265-9.929,27.97-21.257v0.141l10.349-8.811c4.056-3.077,7.691-6.293,10.769-8.95l1.817-1.538l-0.14,0.14
		l4.195-3.776l3.636-4.335c2.797-3.356,4.895-5.733,6.153-6.992h-0.14c6.293-6.713,10.769-9.93,13.984-9.93
		c2.657,0,4.615,1.679,4.615,5.874c0,1.538-0.279,2.797-0.56,4.335V1035.239z"/>
	<path d="M756.864,1054.398c-2.098,6.153-3.915,7.133-5.733,10.069c-2.237,2.797-8.251,6.014-18.18,9.929
		c-9.789,3.776-16.642,5.594-19.998,5.594c-1.679,0-4.336-0.559-7.972-2.237l0.28,0.14c-0.42,0-0.979-0.14-1.539-0.419
		c-0.979,1.958-2.517,4.195-2.517,7.132c0,5.314,5.034,7.831,15.942,7.831c2.517,0,6.153-0.559,9.51-1.817l5.873-2.098
		c3.636,0,5.314,3.636,5.314,4.895c0,0.699-0.28,1.398-0.839,1.958c-9.37,7.552-18.88,11.607-27.69,11.607
		c-13.285,0-24.612-10.908-24.612-21.816c0-4.895,2.377-10.629,7.132-16.642c14.684-18.739,37.619-29.928,48.527-29.928
		c7.831,0,12.865,1.259,14.963,3.637h-0.14c1.538,1.538,2.377,3.775,2.377,6.572c0,1.119-0.14,2.518-0.699,4.755V1054.398z
		 M715.75,1064.468c0,0,0.14,0,0.56-0.14C716.029,1064.468,715.75,1064.468,715.75,1064.468z M716.31,1064.328
		c8.251-1.958,24.612-8.531,25.592-11.048c0,0,0-0.141,0.14-0.141C734.629,1053.42,722.882,1058.594,716.31,1064.328z"/>
	<path d="M751.97,1105.723c-3.496,0-6.713-3.916-6.713-7.832c0-5.313,6.853-9.369,9.93-9.369c3.915,0,7.132,3.216,7.132,7.971
		c0,0.84-0.14,1.679-0.279,2.518C761.199,1104.185,757.703,1105.723,751.97,1105.723z"/>
	<path d="M848.604,1066.006c-0.839,3.776-13.845,34.682-21.117,45.311l-6.433,9.37c-19.159,26.57-35.102,30.347-37.619,30.347
		c-12.167,0-23.634-9.23-23.634-25.033c0-12.166,6.572-20.417,11.467-23.914h2.518c1.398,0,2.518,0.979,2.518,2.378
		c0,3.496-1.958,6.853-3.217,8.251c0,0-1.398,2.518-1.398,2.797l-1.259,6.014c0,4.056,4.336,14.963,8.251,15.243
		c3.637-1.119,7.272-2.518,10.209-4.056h-0.14c9.09-5.454,18.879-15.942,27.41-28.109c4.755-6.713,5.594-10.068,8.67-15.663
		c2.657-4.614,4.195-7.831,4.615-9.649c5.034-11.467,6.853-16.361,8.251-20.697c-0.42-0.419-0.56-0.979-0.56-2.098
		c0-0.279,0-2.657,0.979-2.657c-1.119-0.279-1.958-1.538-1.958-2.656c0-0.141,0.14-0.42,0.14-0.56l1.398-7.133l2.518-3.355
		c1.258-1.119,2.797-1.399,4.755-1.399c3.636,0,6.013,1.539,6.992,4.336h-0.141c0.42,1.118,0.699,2.237,0.699,3.636
		c0,1.119-0.14,2.378-0.419,3.636l-0.56,2.657c-0.14,0.28-0.279,0.979-0.56,1.398L848.604,1066.006z M851.4,1025.311
		c-2.237,3.636-7.133,6.853-11.747,6.853c-1.398,0-2.378-1.119-2.378-2.657c0-0.14,0-0.279,0-0.42l1.958-8.95
		c1.259-1.817,2.518-2.797,3.636-3.496l2.378-1.398c2.518,0,4.615,1.398,6.014,3.916l-0.141-0.14c0.56,1.398,0.84,2.518,0.84,3.775
		c0,0.56,0,0.979-0.141,1.539L851.4,1025.311z M837.975,1057.195c0,0,0.141,0.141,0.141,0.28v-0.14c0-0.28,0-0.7,0-0.84
		C838.115,1056.776,837.975,1056.916,837.975,1057.195z"/>
	<path d="M891.677,1046.008c-3.216,2.098-5.313,3.217-8.11,3.217s-4.336-0.84-4.336-2.938c0-0.419,0.141-0.699,0.28-1.118
		c8.251-14.685,32.584-27.55,53.281-27.55c9.649,0,17.062,9.229,17.062,18.6c0,10.209-8.95,25.032-30.207,46.988
		c-4.335,4.476-10.769,9.229-19.159,14.684c-10.768,6.853-19.159,10.209-25.313,10.209c-2.377,0-2.377-1.958-5.313-1.958
		c-0.14,0-3.077,4.615-7.691,12.307c-8.531,15.384-7.972,18.6-10.629,18.6c-0.14,0-0.419,0-0.56-0.14
		c-6.572-1.678-8.81-3.496-8.81-7.271c0-4.476,7.411-18.041,24.053-43.213c3.916-6.014,7.412-12.866,22.796-32.305l0.419-4.335
		C890.139,1048.385,890.838,1047.127,891.677,1046.008z M871.819,1106.422l0.14,0.14
		C871.959,1106.562,871.819,1106.562,871.819,1106.422z M889.021,1078.313l-10.209,15.104c10.768-3.916,25.592-15.243,30.766-21.536
		l16.362-18.6l-0.14,0.14c6.153-8.111,8.391-13.146,8.391-16.922c0-2.377,0.28-3.915-9.369-3.915c-7.692,0-16.643,3.076-26.012,8.53
		h0.14c3.356,0,4.755,2.237,4.755,6.153c0,1.259-0.14,2.657-0.56,4.615v-0.141c-0.979,5.035-2.937,9.649-5.733,13.985
		L889.021,1078.313z"/>
</g>
<g>
</g>
<g>
</g>
<g>
</g>
<g>
</g>
<g>
</g>
<g>
</g>
<g>
</g>
<g>
</g>
<g>
</g>
<g>
</g>
<g>
</g>
<g>
</g>
<g>
</g>
<g>
</g>
<g>
</g>
</svg>
